# xmcd
#
# Track frame offsets:
#	150
#	12901
#	25230
#	38564
#	48747
#	62128
#	73548
#	80145
#	91588
#	103293
#
# Disc length: 1690 seconds
#
# Revision: 1
# Processed by: cddbd v1.4PL0 Copyright (c) Steve Scherf et al.
# Submitted via: audiograbber 1.82.01
#
DISCID=7f06980a
DTITLE=Various Artist - Country Greats
DYEAR=1900
DGENRE=Oldies
TTITLE0=Charley Pride  Crystal Chandeliers
TTITLE1=Johnny Lee This Time
TTITLE2=Dottie West  D.I.V.O.R.C.E.
TTITLE3=Roger Miller King Of The Road
TTITLE4=Loretta Lynn Back In Baby's Arms
TTITLE5=Carl Belew Little Miss Heartache
TTITLE6=Tennessee Ernie Ford You Gonna See Mama
TTITLE7=Don Gibson  A Legend In My Time
TTITLE8=Brenda Lee Silver Threads And Golden Needles
TTITLE9=Willie Nelson Till I Gain Control Again
EXTD=Disk 3 of Three from Country Greats pack
EXTT0=
EXTT1=
EXTT2=
EXTT3=
EXTT4=
EXTT5=
EXTT6=
EXTT7=
EXTT8=
EXTT9=
PLAYORDER=
